<mxfile host="65bd71144e">
    <diagram id="-TH5niIT8qfvevKe-ZTf" name="Page-1">
        <mxGraphModel dx="1141" dy="637" grid="0" gridSize="10" guides="1" tooltips="1" connect="1" arrows="1" fold="1" page="1" pageScale="1" pageWidth="1169" pageHeight="827" background="#ffffff" math="0" shadow="0">
            <root>
                <mxCell id="0"/>
                <mxCell id="1" parent="0"/>
                <mxCell id="2" value="restaurants" style="swimlane;fontStyle=1;align=center;verticalAlign=middle;childLayout=stackLayout;horizontal=1;startSize=34;horizontalStack=0;resizeParent=1;resizeParentMax=0;resizeLast=0;collapsible=1;marginBottom=0;strokeWidth=1;fontSize=21;labelBackgroundColor=none;strokeColor=#000000;swimlaneLine=0;fillColor=default;" vertex="1" parent="1">
                    <mxGeometry x="19" y="39" width="286" height="628" as="geometry">
                        <mxRectangle x="19" y="39" width="260" height="36" as="alternateBounds"/>
                    </mxGeometry>
                </mxCell>
                <mxCell id="4" value="" style="line;strokeWidth=1;fillColor=none;align=left;verticalAlign=middle;spacingTop=-1;spacingLeft=3;spacingRight=3;rotatable=0;labelPosition=right;points=[];portConstraint=eastwest;strokeColor=none;" vertex="1" parent="2">
                    <mxGeometry y="34" width="286" height="2" as="geometry"/>
                </mxCell>
                <mxCell id="14" value="pk   restaurant_id" style="text;strokeColor=#B20000;fillColor=#e51400;align=left;verticalAlign=top;spacingLeft=4;spacingRight=4;overflow=hidden;rotatable=0;points=[[0,0.5],[1,0.5]];portConstraint=eastwest;labelBackgroundColor=none;fontColor=#ffffff;strokeWidth=1;fontSize=19;" vertex="1" parent="2">
                    <mxGeometry y="36" width="286" height="37" as="geometry"/>
                </mxCell>
                <mxCell id="16" value="       restaurant_name" style="text;strokeColor=#B20000;fillColor=#e51400;align=left;verticalAlign=top;spacingLeft=4;spacingRight=4;overflow=hidden;rotatable=0;points=[[0,0.5],[1,0.5]];portConstraint=eastwest;labelBackgroundColor=none;fontColor=#ffffff;strokeWidth=1;fontSize=19;" vertex="1" parent="2">
                    <mxGeometry y="73" width="286" height="37" as="geometry"/>
                </mxCell>
                <mxCell id="23" value="       search_optimized_name" style="text;strokeColor=#B20000;fillColor=#e51400;align=left;verticalAlign=top;spacingLeft=4;spacingRight=4;overflow=hidden;rotatable=0;points=[[0,0.5],[1,0.5]];portConstraint=eastwest;labelBackgroundColor=none;fontColor=#ffffff;strokeWidth=1;fontSize=19;" vertex="1" parent="2">
                    <mxGeometry y="110" width="286" height="37" as="geometry"/>
                </mxCell>
                <mxCell id="21" value="       restaurant_category_id" style="text;strokeColor=#2D7600;fillColor=#60a917;align=left;verticalAlign=top;spacingLeft=4;spacingRight=4;overflow=hidden;rotatable=0;points=[[0,0.5],[1,0.5]];portConstraint=eastwest;labelBackgroundColor=none;fontColor=#ffffff;strokeWidth=1;fontSize=19;" vertex="1" parent="2">
                    <mxGeometry y="147" width="286" height="37" as="geometry"/>
                </mxCell>
                <mxCell id="22" value="       restaurant_location" style="text;strokeColor=#B20000;fillColor=#e51400;align=left;verticalAlign=top;spacingLeft=4;spacingRight=4;overflow=hidden;rotatable=0;points=[[0,0.5],[1,0.5]];portConstraint=eastwest;labelBackgroundColor=none;fontColor=#ffffff;strokeWidth=1;fontSize=19;" vertex="1" parent="2">
                    <mxGeometry y="184" width="286" height="37" as="geometry"/>
                </mxCell>
                <mxCell id="32" value="       location_tags" style="text;strokeColor=#2D7600;fillColor=#60a917;align=left;verticalAlign=top;spacingLeft=4;spacingRight=4;overflow=hidden;rotatable=0;points=[[0,0.5],[1,0.5]];portConstraint=eastwest;labelBackgroundColor=none;fontColor=#ffffff;strokeWidth=1;fontSize=19;" vertex="1" parent="2">
                    <mxGeometry y="221" width="286" height="37" as="geometry"/>
                </mxCell>
                <mxCell id="24" value="       google_map_location" style="text;strokeColor=#2D7600;fillColor=#60a917;align=left;verticalAlign=top;spacingLeft=4;spacingRight=4;overflow=hidden;rotatable=0;points=[[0,0.5],[1,0.5]];portConstraint=eastwest;labelBackgroundColor=none;fontColor=#ffffff;strokeWidth=1;fontSize=19;" vertex="1" parent="2">
                    <mxGeometry y="258" width="286" height="37" as="geometry"/>
                </mxCell>
                <mxCell id="26" value="       phone_no" style="text;strokeColor=#B20000;fillColor=#e51400;align=left;verticalAlign=top;spacingLeft=4;spacingRight=4;overflow=hidden;rotatable=0;points=[[0,0.5],[1,0.5]];portConstraint=eastwest;labelBackgroundColor=none;fontColor=#ffffff;strokeWidth=1;fontSize=19;" vertex="1" parent="2">
                    <mxGeometry y="295" width="286" height="37" as="geometry"/>
                </mxCell>
                <mxCell id="27" value="       email" style="text;strokeColor=#2D7600;fillColor=#60a917;align=left;verticalAlign=top;spacingLeft=4;spacingRight=4;overflow=hidden;rotatable=0;points=[[0,0.5],[1,0.5]];portConstraint=eastwest;labelBackgroundColor=none;fontColor=#ffffff;strokeWidth=1;fontSize=19;" vertex="1" parent="2">
                    <mxGeometry y="332" width="286" height="37" as="geometry"/>
                </mxCell>
                <mxCell id="28" value="       website_link" style="text;strokeColor=#2D7600;fillColor=#60a917;align=left;verticalAlign=top;spacingLeft=4;spacingRight=4;overflow=hidden;rotatable=0;points=[[0,0.5],[1,0.5]];portConstraint=eastwest;labelBackgroundColor=none;fontColor=#ffffff;strokeWidth=1;fontSize=19;" vertex="1" parent="2">
                    <mxGeometry y="369" width="286" height="37" as="geometry"/>
                </mxCell>
                <mxCell id="29" value="       fb_link" style="text;strokeColor=#2D7600;fillColor=#60a917;align=left;verticalAlign=top;spacingLeft=4;spacingRight=4;overflow=hidden;rotatable=0;points=[[0,0.5],[1,0.5]];portConstraint=eastwest;labelBackgroundColor=none;fontColor=#ffffff;strokeWidth=1;fontSize=19;" vertex="1" parent="2">
                    <mxGeometry y="406" width="286" height="37" as="geometry"/>
                </mxCell>
                <mxCell id="30" value="       instagram_link" style="text;strokeColor=#2D7600;fillColor=#60a917;align=left;verticalAlign=top;spacingLeft=4;spacingRight=4;overflow=hidden;rotatable=0;points=[[0,0.5],[1,0.5]];portConstraint=eastwest;labelBackgroundColor=none;fontColor=#ffffff;strokeWidth=1;fontSize=19;" vertex="1" parent="2">
                    <mxGeometry y="443" width="286" height="37" as="geometry"/>
                </mxCell>
                <mxCell id="31" value="       instagram_link" style="text;strokeColor=#2D7600;fillColor=#60a917;align=left;verticalAlign=top;spacingLeft=4;spacingRight=4;overflow=hidden;rotatable=0;points=[[0,0.5],[1,0.5]];portConstraint=eastwest;labelBackgroundColor=none;fontColor=#ffffff;strokeWidth=1;fontSize=19;" vertex="1" parent="2">
                    <mxGeometry y="480" width="286" height="37" as="geometry"/>
                </mxCell>
                <mxCell id="33" value="       short_intro" style="text;strokeColor=#2D7600;fillColor=#60a917;align=left;verticalAlign=top;spacingLeft=4;spacingRight=4;overflow=hidden;rotatable=0;points=[[0,0.5],[1,0.5]];portConstraint=eastwest;labelBackgroundColor=none;fontColor=#ffffff;strokeWidth=1;fontSize=19;" vertex="1" parent="2">
                    <mxGeometry y="517" width="286" height="37" as="geometry"/>
                </mxCell>
                <mxCell id="34" value="       details_description" style="text;strokeColor=#2D7600;fillColor=#60a917;align=left;verticalAlign=top;spacingLeft=4;spacingRight=4;overflow=hidden;rotatable=0;points=[[0,0.5],[1,0.5]];portConstraint=eastwest;labelBackgroundColor=none;fontColor=#ffffff;strokeWidth=1;fontSize=19;" vertex="1" parent="2">
                    <mxGeometry y="554" width="286" height="37" as="geometry"/>
                </mxCell>
                <mxCell id="52" value="       restaurant_img_ids" style="text;strokeColor=#B20000;fillColor=#e51400;align=left;verticalAlign=top;spacingLeft=4;spacingRight=4;overflow=hidden;rotatable=0;points=[[0,0.5],[1,0.5]];portConstraint=eastwest;labelBackgroundColor=none;fontColor=#ffffff;strokeWidth=1;fontSize=19;" vertex="1" parent="2">
                    <mxGeometry y="591" width="286" height="37" as="geometry"/>
                </mxCell>
                <mxCell id="U1Lam06arpVIEoWtVpNZ-52" value="items" style="swimlane;fontStyle=1;align=center;verticalAlign=middle;childLayout=stackLayout;horizontal=1;startSize=34;horizontalStack=0;resizeParent=1;resizeParentMax=0;resizeLast=0;collapsible=1;marginBottom=0;strokeWidth=1;fontSize=21;labelBackgroundColor=none;strokeColor=#000000;swimlaneLine=0;fillColor=default;" vertex="1" parent="1">
                    <mxGeometry x="359" y="39" width="269" height="480" as="geometry">
                        <mxRectangle x="359" y="39" width="260" height="36" as="alternateBounds"/>
                    </mxGeometry>
                </mxCell>
                <mxCell id="U1Lam06arpVIEoWtVpNZ-53" value="" style="line;strokeWidth=1;fillColor=none;align=left;verticalAlign=middle;spacingTop=-1;spacingLeft=3;spacingRight=3;rotatable=0;labelPosition=right;points=[];portConstraint=eastwest;strokeColor=none;" vertex="1" parent="U1Lam06arpVIEoWtVpNZ-52">
                    <mxGeometry y="34" width="269" height="2" as="geometry"/>
                </mxCell>
                <mxCell id="U1Lam06arpVIEoWtVpNZ-54" value="pk   item_id" style="text;strokeColor=#B20000;fillColor=#e51400;align=left;verticalAlign=top;spacingLeft=4;spacingRight=4;overflow=hidden;rotatable=0;points=[[0,0.5],[1,0.5]];portConstraint=eastwest;labelBackgroundColor=none;fontColor=#ffffff;strokeWidth=1;fontSize=19;" vertex="1" parent="U1Lam06arpVIEoWtVpNZ-52">
                    <mxGeometry y="36" width="269" height="37" as="geometry"/>
                </mxCell>
                <mxCell id="U1Lam06arpVIEoWtVpNZ-55" value="       item_name" style="text;strokeColor=#B20000;fillColor=#e51400;align=left;verticalAlign=top;spacingLeft=4;spacingRight=4;overflow=hidden;rotatable=0;points=[[0,0.5],[1,0.5]];portConstraint=eastwest;labelBackgroundColor=none;fontColor=#ffffff;strokeWidth=1;fontSize=19;" vertex="1" parent="U1Lam06arpVIEoWtVpNZ-52">
                    <mxGeometry y="73" width="269" height="37" as="geometry"/>
                </mxCell>
                <mxCell id="U1Lam06arpVIEoWtVpNZ-57" value="       search_optimized_name" style="text;strokeColor=#2D7600;fillColor=#60a917;align=left;verticalAlign=top;spacingLeft=4;spacingRight=4;overflow=hidden;rotatable=0;points=[[0,0.5],[1,0.5]];portConstraint=eastwest;labelBackgroundColor=none;fontColor=#ffffff;strokeWidth=1;fontSize=19;" vertex="1" parent="U1Lam06arpVIEoWtVpNZ-52">
                    <mxGeometry y="110" width="269" height="37" as="geometry"/>
                </mxCell>
                <mxCell id="U1Lam06arpVIEoWtVpNZ-58" value="       item_tags" style="text;strokeColor=#2D7600;fillColor=#60a917;align=left;verticalAlign=top;spacingLeft=4;spacingRight=4;overflow=hidden;rotatable=0;points=[[0,0.5],[1,0.5]];portConstraint=eastwest;labelBackgroundColor=none;fontColor=#ffffff;strokeWidth=1;fontSize=19;" vertex="1" parent="U1Lam06arpVIEoWtVpNZ-52">
                    <mxGeometry y="147" width="269" height="37" as="geometry"/>
                </mxCell>
                <mxCell id="U1Lam06arpVIEoWtVpNZ-59" value="       item_reg_price" style="text;strokeColor=#B20000;fillColor=#e51400;align=left;verticalAlign=top;spacingLeft=4;spacingRight=4;overflow=hidden;rotatable=0;points=[[0,0.5],[1,0.5]];portConstraint=eastwest;labelBackgroundColor=none;fontColor=#ffffff;strokeWidth=1;fontSize=19;" vertex="1" parent="U1Lam06arpVIEoWtVpNZ-52">
                    <mxGeometry y="184" width="269" height="37" as="geometry"/>
                </mxCell>
                <mxCell id="U1Lam06arpVIEoWtVpNZ-60" value="       item_sell_price" style="text;strokeColor=#2D7600;fillColor=#60a917;align=left;verticalAlign=top;spacingLeft=4;spacingRight=4;overflow=hidden;rotatable=0;points=[[0,0.5],[1,0.5]];portConstraint=eastwest;labelBackgroundColor=none;fontColor=#ffffff;strokeWidth=1;fontSize=19;" vertex="1" parent="U1Lam06arpVIEoWtVpNZ-52">
                    <mxGeometry y="221" width="269" height="37" as="geometry"/>
                </mxCell>
                <mxCell id="U1Lam06arpVIEoWtVpNZ-70" value="       in_offer" style="text;strokeColor=#2D7600;fillColor=#60a917;align=left;verticalAlign=top;spacingLeft=4;spacingRight=4;overflow=hidden;rotatable=0;points=[[0,0.5],[1,0.5]];portConstraint=eastwest;labelBackgroundColor=none;fontColor=#ffffff;strokeWidth=1;fontSize=19;" vertex="1" parent="U1Lam06arpVIEoWtVpNZ-52">
                    <mxGeometry y="258" width="269" height="37" as="geometry"/>
                </mxCell>
                <mxCell id="U1Lam06arpVIEoWtVpNZ-73" value="       offer_start_date" style="text;strokeColor=#2D7600;fillColor=#60a917;align=left;verticalAlign=top;spacingLeft=4;spacingRight=4;overflow=hidden;rotatable=0;points=[[0,0.5],[1,0.5]];portConstraint=eastwest;labelBackgroundColor=none;fontColor=#ffffff;strokeWidth=1;fontSize=19;" vertex="1" parent="U1Lam06arpVIEoWtVpNZ-52">
                    <mxGeometry y="295" width="269" height="37" as="geometry"/>
                </mxCell>
                <mxCell id="U1Lam06arpVIEoWtVpNZ-74" value="       offer_end_date" style="text;strokeColor=#2D7600;fillColor=#60a917;align=left;verticalAlign=top;spacingLeft=4;spacingRight=4;overflow=hidden;rotatable=0;points=[[0,0.5],[1,0.5]];portConstraint=eastwest;labelBackgroundColor=none;fontColor=#ffffff;strokeWidth=1;fontSize=19;" vertex="1" parent="U1Lam06arpVIEoWtVpNZ-52">
                    <mxGeometry y="332" width="269" height="37" as="geometry"/>
                </mxCell>
                <mxCell id="U1Lam06arpVIEoWtVpNZ-72" value="       item_restaurant_id" style="text;strokeColor=#B20000;fillColor=#e51400;align=left;verticalAlign=top;spacingLeft=4;spacingRight=4;overflow=hidden;rotatable=0;points=[[0,0.5],[1,0.5]];portConstraint=eastwest;labelBackgroundColor=none;fontColor=#ffffff;strokeWidth=1;fontSize=19;" vertex="1" parent="U1Lam06arpVIEoWtVpNZ-52">
                    <mxGeometry y="369" width="269" height="37" as="geometry"/>
                </mxCell>
                <mxCell id="U1Lam06arpVIEoWtVpNZ-71" value="       item_restaurant_name" style="text;strokeColor=#B20000;fillColor=#e51400;align=left;verticalAlign=top;spacingLeft=4;spacingRight=4;overflow=hidden;rotatable=0;points=[[0,0.5],[1,0.5]];portConstraint=eastwest;labelBackgroundColor=none;fontColor=#ffffff;strokeWidth=1;fontSize=19;" vertex="1" parent="U1Lam06arpVIEoWtVpNZ-52">
                    <mxGeometry y="406" width="269" height="37" as="geometry"/>
                </mxCell>
                <mxCell id="U1Lam06arpVIEoWtVpNZ-75" value="       item_img_ids&#10;" style="text;strokeColor=#B20000;fillColor=#e51400;align=left;verticalAlign=top;spacingLeft=4;spacingRight=4;overflow=hidden;rotatable=0;points=[[0,0.5],[1,0.5]];portConstraint=eastwest;labelBackgroundColor=none;fontColor=#ffffff;strokeWidth=1;fontSize=19;" vertex="1" parent="U1Lam06arpVIEoWtVpNZ-52">
                    <mxGeometry y="443" width="269" height="37" as="geometry"/>
                </mxCell>
                <mxCell id="U1Lam06arpVIEoWtVpNZ-76" value="item_categories" style="swimlane;fontStyle=1;align=center;verticalAlign=middle;childLayout=stackLayout;horizontal=1;startSize=34;horizontalStack=0;resizeParent=1;resizeParentMax=0;resizeLast=0;collapsible=1;marginBottom=0;strokeWidth=1;fontSize=21;labelBackgroundColor=none;strokeColor=#000000;swimlaneLine=0;fillColor=default;" vertex="1" parent="1">
                    <mxGeometry x="668" y="39" width="269" height="110" as="geometry">
                        <mxRectangle x="668" y="39" width="260" height="36" as="alternateBounds"/>
                    </mxGeometry>
                </mxCell>
                <mxCell id="U1Lam06arpVIEoWtVpNZ-77" value="" style="line;strokeWidth=1;fillColor=none;align=left;verticalAlign=middle;spacingTop=-1;spacingLeft=3;spacingRight=3;rotatable=0;labelPosition=right;points=[];portConstraint=eastwest;strokeColor=none;" vertex="1" parent="U1Lam06arpVIEoWtVpNZ-76">
                    <mxGeometry y="34" width="269" height="2" as="geometry"/>
                </mxCell>
                <mxCell id="U1Lam06arpVIEoWtVpNZ-78" value="      item_category_id" style="text;strokeColor=#B20000;fillColor=#e51400;align=left;verticalAlign=top;spacingLeft=4;spacingRight=4;overflow=hidden;rotatable=0;points=[[0,0.5],[1,0.5]];portConstraint=eastwest;labelBackgroundColor=none;fontColor=#ffffff;strokeWidth=1;fontSize=19;" vertex="1" parent="U1Lam06arpVIEoWtVpNZ-76">
                    <mxGeometry y="36" width="269" height="37" as="geometry"/>
                </mxCell>
                <mxCell id="U1Lam06arpVIEoWtVpNZ-79" value="       item_category_name" style="text;strokeColor=#B20000;fillColor=#e51400;align=left;verticalAlign=top;spacingLeft=4;spacingRight=4;overflow=hidden;rotatable=0;points=[[0,0.5],[1,0.5]];portConstraint=eastwest;labelBackgroundColor=none;fontColor=#ffffff;strokeWidth=1;fontSize=19;" vertex="1" parent="U1Lam06arpVIEoWtVpNZ-76">
                    <mxGeometry y="73" width="269" height="37" as="geometry"/>
                </mxCell>
                <mxCell id="U1Lam06arpVIEoWtVpNZ-91" value="res_categories_res" style="swimlane;fontStyle=1;align=center;verticalAlign=middle;childLayout=stackLayout;horizontal=1;startSize=34;horizontalStack=0;resizeParent=1;resizeParentMax=0;resizeLast=0;collapsible=1;marginBottom=0;strokeWidth=1;fontSize=21;labelBackgroundColor=none;strokeColor=#000000;swimlaneLine=0;fillColor=default;" vertex="1" parent="1">
                    <mxGeometry x="668" y="406" width="269" height="110" as="geometry">
                        <mxRectangle x="668" y="406" width="260" height="36" as="alternateBounds"/>
                    </mxGeometry>
                </mxCell>
                <mxCell id="U1Lam06arpVIEoWtVpNZ-92" value="" style="line;strokeWidth=1;fillColor=none;align=left;verticalAlign=middle;spacingTop=-1;spacingLeft=3;spacingRight=3;rotatable=0;labelPosition=right;points=[];portConstraint=eastwest;strokeColor=none;" vertex="1" parent="U1Lam06arpVIEoWtVpNZ-91">
                    <mxGeometry y="34" width="269" height="2" as="geometry"/>
                </mxCell>
                <mxCell id="U1Lam06arpVIEoWtVpNZ-93" value="      res_category_id" style="text;strokeColor=#B20000;fillColor=#e51400;align=left;verticalAlign=top;spacingLeft=4;spacingRight=4;overflow=hidden;rotatable=0;points=[[0,0.5],[1,0.5]];portConstraint=eastwest;labelBackgroundColor=none;fontColor=#ffffff;strokeWidth=1;fontSize=19;" vertex="1" parent="U1Lam06arpVIEoWtVpNZ-91">
                    <mxGeometry y="36" width="269" height="37" as="geometry"/>
                </mxCell>
                <mxCell id="U1Lam06arpVIEoWtVpNZ-94" value="       restaurant_id" style="text;strokeColor=#B20000;fillColor=#e51400;align=left;verticalAlign=top;spacingLeft=4;spacingRight=4;overflow=hidden;rotatable=0;points=[[0,0.5],[1,0.5]];portConstraint=eastwest;labelBackgroundColor=none;fontColor=#ffffff;strokeWidth=1;fontSize=19;" vertex="1" parent="U1Lam06arpVIEoWtVpNZ-91">
                    <mxGeometry y="73" width="269" height="37" as="geometry"/>
                </mxCell>
                <mxCell id="U1Lam06arpVIEoWtVpNZ-95" value="item_categories_items" style="swimlane;fontStyle=1;align=center;verticalAlign=middle;childLayout=stackLayout;horizontal=1;startSize=34;horizontalStack=0;resizeParent=1;resizeParentMax=0;resizeLast=0;collapsible=1;marginBottom=0;strokeWidth=1;fontSize=21;labelBackgroundColor=none;strokeColor=#000000;swimlaneLine=0;fillColor=default;" vertex="1" parent="1">
                    <mxGeometry x="668" y="165" width="269" height="110" as="geometry">
                        <mxRectangle x="668" y="39" width="260" height="36" as="alternateBounds"/>
                    </mxGeometry>
                </mxCell>
                <mxCell id="U1Lam06arpVIEoWtVpNZ-96" value="" style="line;strokeWidth=1;fillColor=none;align=left;verticalAlign=middle;spacingTop=-1;spacingLeft=3;spacingRight=3;rotatable=0;labelPosition=right;points=[];portConstraint=eastwest;strokeColor=none;" vertex="1" parent="U1Lam06arpVIEoWtVpNZ-95">
                    <mxGeometry y="34" width="269" height="2" as="geometry"/>
                </mxCell>
                <mxCell id="U1Lam06arpVIEoWtVpNZ-97" value="      item_category_id" style="text;strokeColor=#B20000;fillColor=#e51400;align=left;verticalAlign=top;spacingLeft=4;spacingRight=4;overflow=hidden;rotatable=0;points=[[0,0.5],[1,0.5]];portConstraint=eastwest;labelBackgroundColor=none;fontColor=#ffffff;strokeWidth=1;fontSize=19;" vertex="1" parent="U1Lam06arpVIEoWtVpNZ-95">
                    <mxGeometry y="36" width="269" height="37" as="geometry"/>
                </mxCell>
                <mxCell id="U1Lam06arpVIEoWtVpNZ-98" value="       item_id" style="text;strokeColor=#B20000;fillColor=#e51400;align=left;verticalAlign=top;spacingLeft=4;spacingRight=4;overflow=hidden;rotatable=0;points=[[0,0.5],[1,0.5]];portConstraint=eastwest;labelBackgroundColor=none;fontColor=#ffffff;strokeWidth=1;fontSize=19;" vertex="1" parent="U1Lam06arpVIEoWtVpNZ-95">
                    <mxGeometry y="73" width="269" height="37" as="geometry"/>
                </mxCell>
                <mxCell id="U1Lam06arpVIEoWtVpNZ-99" value="restaurant_categories" style="swimlane;fontStyle=1;align=center;verticalAlign=middle;childLayout=stackLayout;horizontal=1;startSize=34;horizontalStack=0;resizeParent=1;resizeParentMax=0;resizeLast=0;collapsible=1;marginBottom=0;strokeWidth=1;fontSize=21;labelBackgroundColor=none;strokeColor=#000000;swimlaneLine=0;fillColor=default;" vertex="1" parent="1">
                    <mxGeometry x="668" y="290" width="269" height="110" as="geometry">
                        <mxRectangle x="668" y="290" width="260" height="36" as="alternateBounds"/>
                    </mxGeometry>
                </mxCell>
                <mxCell id="U1Lam06arpVIEoWtVpNZ-100" value="" style="line;strokeWidth=1;fillColor=none;align=left;verticalAlign=middle;spacingTop=-1;spacingLeft=3;spacingRight=3;rotatable=0;labelPosition=right;points=[];portConstraint=eastwest;strokeColor=none;" vertex="1" parent="U1Lam06arpVIEoWtVpNZ-99">
                    <mxGeometry y="34" width="269" height="2" as="geometry"/>
                </mxCell>
                <mxCell id="U1Lam06arpVIEoWtVpNZ-101" value="       res_category_id" style="text;strokeColor=#B20000;fillColor=#e51400;align=left;verticalAlign=top;spacingLeft=4;spacingRight=4;overflow=hidden;rotatable=0;points=[[0,0.5],[1,0.5]];portConstraint=eastwest;labelBackgroundColor=none;fontColor=#ffffff;strokeWidth=1;fontSize=19;" vertex="1" parent="U1Lam06arpVIEoWtVpNZ-99">
                    <mxGeometry y="36" width="269" height="37" as="geometry"/>
                </mxCell>
                <mxCell id="U1Lam06arpVIEoWtVpNZ-102" value="       res_category_name" style="text;strokeColor=#B20000;fillColor=#e51400;align=left;verticalAlign=top;spacingLeft=4;spacingRight=4;overflow=hidden;rotatable=0;points=[[0,0.5],[1,0.5]];portConstraint=eastwest;labelBackgroundColor=none;fontColor=#ffffff;strokeWidth=1;fontSize=19;" vertex="1" parent="U1Lam06arpVIEoWtVpNZ-99">
                    <mxGeometry y="73" width="269" height="37" as="geometry"/>
                </mxCell>
                <mxCell id="LATyGfZJ7SO9DQJMhyyA-52" value="item_tags" style="swimlane;fontStyle=1;align=center;verticalAlign=middle;childLayout=stackLayout;horizontal=1;startSize=34;horizontalStack=0;resizeParent=1;resizeParentMax=0;resizeLast=0;collapsible=1;marginBottom=0;strokeWidth=0;fontSize=21;labelBackgroundColor=none;strokeColor=#000000;swimlaneLine=0;fillColor=default;" vertex="1" parent="1">
                    <mxGeometry x="363" y="556" width="269" height="110" as="geometry">
                        <mxRectangle x="19" y="39" width="260" height="36" as="alternateBounds"/>
                    </mxGeometry>
                </mxCell>
                <mxCell id="LATyGfZJ7SO9DQJMhyyA-53" value="" style="line;strokeWidth=1;fillColor=none;align=left;verticalAlign=middle;spacingTop=-1;spacingLeft=3;spacingRight=3;rotatable=0;labelPosition=right;points=[];portConstraint=eastwest;strokeColor=none;" vertex="1" parent="LATyGfZJ7SO9DQJMhyyA-52">
                    <mxGeometry y="34" width="269" height="2" as="geometry"/>
                </mxCell>
                <mxCell id="LATyGfZJ7SO9DQJMhyyA-54" value="pk   id" style="text;strokeColor=#B20000;fillColor=#e51400;align=left;verticalAlign=top;spacingLeft=4;spacingRight=4;overflow=hidden;rotatable=0;points=[[0,0.5],[1,0.5]];portConstraint=eastwest;labelBackgroundColor=none;fontColor=#ffffff;strokeWidth=1;fontSize=19;" vertex="1" parent="LATyGfZJ7SO9DQJMhyyA-52">
                    <mxGeometry y="36" width="269" height="37" as="geometry"/>
                </mxCell>
                <mxCell id="LATyGfZJ7SO9DQJMhyyA-55" value="       item_tag" style="text;strokeColor=#B20000;fillColor=#e51400;align=left;verticalAlign=top;spacingLeft=4;spacingRight=4;overflow=hidden;rotatable=0;points=[[0,0.5],[1,0.5]];portConstraint=eastwest;labelBackgroundColor=none;fontColor=#ffffff;strokeWidth=1;fontSize=19;" vertex="1" parent="LATyGfZJ7SO9DQJMhyyA-52">
                    <mxGeometry y="73" width="269" height="37" as="geometry"/>
                </mxCell>
            </root>
        </mxGraphModel>
    </diagram>
    <diagram name="page2" id="Si32Oo2oabg2GPwbRhai">
        <mxGraphModel dx="856" dy="478" grid="0" gridSize="10" guides="1" tooltips="1" connect="1" arrows="1" fold="1" page="1" pageScale="1" pageWidth="1169" pageHeight="827" background="#ffffff" math="0" shadow="0">
            <root>
                <mxCell id="ezxxoLJ7P5ZrjPc3StpG-0"/>
                <mxCell id="ezxxoLJ7P5ZrjPc3StpG-1" parent="ezxxoLJ7P5ZrjPc3StpG-0"/>
                <mxCell id="ezxxoLJ7P5ZrjPc3StpG-2" value="medias" style="swimlane;fontStyle=1;align=center;verticalAlign=middle;childLayout=stackLayout;horizontal=1;startSize=34;horizontalStack=0;resizeParent=1;resizeParentMax=0;resizeLast=0;collapsible=1;marginBottom=0;strokeWidth=0;fontSize=21;labelBackgroundColor=none;strokeColor=#000000;swimlaneLine=0;fillColor=default;" vertex="1" parent="ezxxoLJ7P5ZrjPc3StpG-1">
                    <mxGeometry x="19" y="39" width="269" height="147" as="geometry">
                        <mxRectangle x="19" y="39" width="260" height="36" as="alternateBounds"/>
                    </mxGeometry>
                </mxCell>
                <mxCell id="ezxxoLJ7P5ZrjPc3StpG-3" value="" style="line;strokeWidth=1;fillColor=none;align=left;verticalAlign=middle;spacingTop=-1;spacingLeft=3;spacingRight=3;rotatable=0;labelPosition=right;points=[];portConstraint=eastwest;strokeColor=none;" vertex="1" parent="ezxxoLJ7P5ZrjPc3StpG-2">
                    <mxGeometry y="34" width="269" height="2" as="geometry"/>
                </mxCell>
                <mxCell id="ezxxoLJ7P5ZrjPc3StpG-4" value="pk   id" style="text;strokeColor=#B20000;fillColor=#e51400;align=left;verticalAlign=top;spacingLeft=4;spacingRight=4;overflow=hidden;rotatable=0;points=[[0,0.5],[1,0.5]];portConstraint=eastwest;labelBackgroundColor=none;fontColor=#ffffff;strokeWidth=1;fontSize=19;" vertex="1" parent="ezxxoLJ7P5ZrjPc3StpG-2">
                    <mxGeometry y="36" width="269" height="37" as="geometry"/>
                </mxCell>
                <mxCell id="ezxxoLJ7P5ZrjPc3StpG-9" value="       media_url" style="text;strokeColor=#B20000;fillColor=#e51400;align=left;verticalAlign=top;spacingLeft=4;spacingRight=4;overflow=hidden;rotatable=0;points=[[0,0.5],[1,0.5]];portConstraint=eastwest;labelBackgroundColor=none;fontColor=#ffffff;strokeWidth=1;fontSize=19;" vertex="1" parent="ezxxoLJ7P5ZrjPc3StpG-2">
                    <mxGeometry y="73" width="269" height="37" as="geometry"/>
                </mxCell>
                <mxCell id="ezxxoLJ7P5ZrjPc3StpG-19" value="       media_uploader_id" style="text;strokeColor=#2D7600;fillColor=#60a917;align=left;verticalAlign=top;spacingLeft=4;spacingRight=4;overflow=hidden;rotatable=0;points=[[0,0.5],[1,0.5]];portConstraint=eastwest;labelBackgroundColor=none;fontColor=#ffffff;strokeWidth=1;fontSize=19;" vertex="1" parent="ezxxoLJ7P5ZrjPc3StpG-2">
                    <mxGeometry y="110" width="269" height="37" as="geometry"/>
                </mxCell>
                <mxCell id="RfnB-6ntf6B7-69k1LJ9-0" value="roles" style="swimlane;fontStyle=1;align=center;verticalAlign=middle;childLayout=stackLayout;horizontal=1;startSize=34;horizontalStack=0;resizeParent=1;resizeParentMax=0;resizeLast=0;collapsible=1;marginBottom=0;strokeWidth=1;fontSize=21;labelBackgroundColor=none;strokeColor=#000000;swimlaneLine=0;fillColor=default;" vertex="1" parent="ezxxoLJ7P5ZrjPc3StpG-1">
                    <mxGeometry x="299" y="39" width="269" height="110" as="geometry">
                        <mxRectangle x="668" y="406" width="260" height="36" as="alternateBounds"/>
                    </mxGeometry>
                </mxCell>
                <mxCell id="RfnB-6ntf6B7-69k1LJ9-1" value="" style="line;strokeWidth=1;fillColor=none;align=left;verticalAlign=middle;spacingTop=-1;spacingLeft=3;spacingRight=3;rotatable=0;labelPosition=right;points=[];portConstraint=eastwest;strokeColor=none;" vertex="1" parent="RfnB-6ntf6B7-69k1LJ9-0">
                    <mxGeometry y="34" width="269" height="2" as="geometry"/>
                </mxCell>
                <mxCell id="RfnB-6ntf6B7-69k1LJ9-2" value="       role_id" style="text;strokeColor=#B20000;fillColor=#e51400;align=left;verticalAlign=top;spacingLeft=4;spacingRight=4;overflow=hidden;rotatable=0;points=[[0,0.5],[1,0.5]];portConstraint=eastwest;labelBackgroundColor=none;fontColor=#ffffff;strokeWidth=1;fontSize=19;" vertex="1" parent="RfnB-6ntf6B7-69k1LJ9-0">
                    <mxGeometry y="36" width="269" height="37" as="geometry"/>
                </mxCell>
                <mxCell id="RfnB-6ntf6B7-69k1LJ9-3" value="       role_name" style="text;strokeColor=#B20000;fillColor=#e51400;align=left;verticalAlign=top;spacingLeft=4;spacingRight=4;overflow=hidden;rotatable=0;points=[[0,0.5],[1,0.5]];portConstraint=eastwest;labelBackgroundColor=none;fontColor=#ffffff;strokeWidth=1;fontSize=19;" vertex="1" parent="RfnB-6ntf6B7-69k1LJ9-0">
                    <mxGeometry y="73" width="269" height="37" as="geometry"/>
                </mxCell>
                <mxCell id="RfnB-6ntf6B7-69k1LJ9-4" value="roles_users" style="swimlane;fontStyle=1;align=center;verticalAlign=middle;childLayout=stackLayout;horizontal=1;startSize=34;horizontalStack=0;resizeParent=1;resizeParentMax=0;resizeLast=0;collapsible=1;marginBottom=0;strokeWidth=1;fontSize=21;labelBackgroundColor=none;strokeColor=#000000;swimlaneLine=0;fillColor=default;" vertex="1" parent="ezxxoLJ7P5ZrjPc3StpG-1">
                    <mxGeometry x="299" y="157" width="269" height="110" as="geometry">
                        <mxRectangle x="668" y="406" width="260" height="36" as="alternateBounds"/>
                    </mxGeometry>
                </mxCell>
                <mxCell id="RfnB-6ntf6B7-69k1LJ9-5" value="" style="line;strokeWidth=1;fillColor=none;align=left;verticalAlign=middle;spacingTop=-1;spacingLeft=3;spacingRight=3;rotatable=0;labelPosition=right;points=[];portConstraint=eastwest;strokeColor=none;" vertex="1" parent="RfnB-6ntf6B7-69k1LJ9-4">
                    <mxGeometry y="34" width="269" height="2" as="geometry"/>
                </mxCell>
                <mxCell id="RfnB-6ntf6B7-69k1LJ9-7" value="       users_id" style="text;strokeColor=#B20000;fillColor=#e51400;align=left;verticalAlign=top;spacingLeft=4;spacingRight=4;overflow=hidden;rotatable=0;points=[[0,0.5],[1,0.5]];portConstraint=eastwest;labelBackgroundColor=none;fontColor=#ffffff;strokeWidth=1;fontSize=19;" vertex="1" parent="RfnB-6ntf6B7-69k1LJ9-4">
                    <mxGeometry y="36" width="269" height="37" as="geometry"/>
                </mxCell>
                <mxCell id="RfnB-6ntf6B7-69k1LJ9-6" value="       role_id" style="text;strokeColor=#B20000;fillColor=#e51400;align=left;verticalAlign=top;spacingLeft=4;spacingRight=4;overflow=hidden;rotatable=0;points=[[0,0.5],[1,0.5]];portConstraint=eastwest;labelBackgroundColor=none;fontColor=#ffffff;strokeWidth=1;fontSize=19;" vertex="1" parent="RfnB-6ntf6B7-69k1LJ9-4">
                    <mxGeometry y="73" width="269" height="37" as="geometry"/>
                </mxCell>
                <mxCell id="RfnB-6ntf6B7-69k1LJ9-9" value="" style="edgeStyle=elbowEdgeStyle;elbow=horizontal;endArrow=classic;html=1;fontSize=20;fontColor=#000000;strokeWidth=3;strokeColor=#000000;" edge="1" parent="ezxxoLJ7P5ZrjPc3StpG-1" source="RfnB-6ntf6B7-69k1LJ9-2">
                    <mxGeometry width="50" height="50" relative="1" as="geometry">
                        <mxPoint x="417" y="119" as="sourcePoint"/>
                        <mxPoint x="619" y="69" as="targetPoint"/>
                    </mxGeometry>
                </mxCell>
                <mxCell id="RfnB-6ntf6B7-69k1LJ9-11" value="" style="shape=ext;double=1;rounded=0;whiteSpace=wrap;html=1;labelBackgroundColor=none;fontSize=20;fontColor=#000000;strokeColor=#000000;strokeWidth=1;fillColor=default;gradientColor=none;" vertex="1" parent="ezxxoLJ7P5ZrjPc3StpG-1">
                    <mxGeometry x="615" y="47" width="212" height="98" as="geometry"/>
                </mxCell>
                <mxCell id="RfnB-6ntf6B7-69k1LJ9-12" value="&lt;h5&gt;&lt;i&gt;super_admin&lt;/i&gt;&lt;/h5&gt;" style="text;strokeColor=none;fillColor=none;html=1;fontSize=24;fontStyle=1;verticalAlign=middle;align=left;labelBackgroundColor=none;fontColor=#FFFFFF;" vertex="1" parent="ezxxoLJ7P5ZrjPc3StpG-1">
                    <mxGeometry x="628" y="59" width="180" height="22" as="geometry"/>
                </mxCell>
                <mxCell id="RfnB-6ntf6B7-69k1LJ9-13" value="&lt;h5&gt;&lt;i&gt;restaurant_owner&lt;/i&gt;&lt;/h5&gt;" style="text;strokeColor=none;fillColor=none;html=1;fontSize=24;fontStyle=1;verticalAlign=middle;align=left;labelBackgroundColor=none;fontColor=#FFFFFF;" vertex="1" parent="ezxxoLJ7P5ZrjPc3StpG-1">
                    <mxGeometry x="625" y="85" width="180" height="22" as="geometry"/>
                </mxCell>
                <mxCell id="RfnB-6ntf6B7-69k1LJ9-14" value="&lt;h5&gt;&lt;i&gt;visitors&lt;/i&gt;&lt;/h5&gt;" style="text;strokeColor=none;fillColor=none;html=1;fontSize=24;fontStyle=1;verticalAlign=middle;align=left;labelBackgroundColor=none;fontColor=#FFFFFF;" vertex="1" parent="ezxxoLJ7P5ZrjPc3StpG-1">
                    <mxGeometry x="628" y="111" width="180" height="22" as="geometry"/>
                </mxCell>
                <mxCell id="Ch1_y1X4u5hKyVOVTeJd-0" value="location_tags" style="swimlane;fontStyle=1;align=center;verticalAlign=middle;childLayout=stackLayout;horizontal=1;startSize=34;horizontalStack=0;resizeParent=1;resizeParentMax=0;resizeLast=0;collapsible=1;marginBottom=0;strokeWidth=0;fontSize=21;labelBackgroundColor=none;strokeColor=#000000;swimlaneLine=0;fillColor=default;" vertex="1" parent="ezxxoLJ7P5ZrjPc3StpG-1">
                    <mxGeometry x="19" y="203" width="269" height="110" as="geometry">
                        <mxRectangle x="19" y="39" width="260" height="36" as="alternateBounds"/>
                    </mxGeometry>
                </mxCell>
                <mxCell id="Ch1_y1X4u5hKyVOVTeJd-1" value="" style="line;strokeWidth=1;fillColor=none;align=left;verticalAlign=middle;spacingTop=-1;spacingLeft=3;spacingRight=3;rotatable=0;labelPosition=right;points=[];portConstraint=eastwest;strokeColor=none;" vertex="1" parent="Ch1_y1X4u5hKyVOVTeJd-0">
                    <mxGeometry y="34" width="269" height="2" as="geometry"/>
                </mxCell>
                <mxCell id="Ch1_y1X4u5hKyVOVTeJd-2" value="pk   id" style="text;strokeColor=#B20000;fillColor=#e51400;align=left;verticalAlign=top;spacingLeft=4;spacingRight=4;overflow=hidden;rotatable=0;points=[[0,0.5],[1,0.5]];portConstraint=eastwest;labelBackgroundColor=none;fontColor=#ffffff;strokeWidth=1;fontSize=19;" vertex="1" parent="Ch1_y1X4u5hKyVOVTeJd-0">
                    <mxGeometry y="36" width="269" height="37" as="geometry"/>
                </mxCell>
                <mxCell id="Ch1_y1X4u5hKyVOVTeJd-3" value="       location_tag" style="text;strokeColor=#B20000;fillColor=#e51400;align=left;verticalAlign=top;spacingLeft=4;spacingRight=4;overflow=hidden;rotatable=0;points=[[0,0.5],[1,0.5]];portConstraint=eastwest;labelBackgroundColor=none;fontColor=#ffffff;strokeWidth=1;fontSize=19;" vertex="1" parent="Ch1_y1X4u5hKyVOVTeJd-0">
                    <mxGeometry y="73" width="269" height="37" as="geometry"/>
                </mxCell>
            </root>
        </mxGraphModel>
    </diagram>
</mxfile>